# xmcd CD database file
#
# Track frame offsets:
#	150
#	21951
#	52971
#	77589
#	115680
#	149466
#	178299
#	197955
#
# Disc length: 3101 seconds
#
# Revision: 0
# Processed by: cddbd v1.5.1PL0 Copyright (c) Steve Scherf et al.
# Submitted via: CDex 1.50beta9
#
DISCID=6c0c1b08
DTITLE=Muthspiel, Blade, Johnson - Air, Love and Vitamins
DYEAR=2004
DGENRE=Jazz
TTITLE0=Air, Love and Vitamins (Harry Pepl)
TTITLE1=Panis Angelicus (Vince Mendoza)
TTITLE2=Kind Of In Between (Wolfgang Muthspiel
TTITLE3=After 6 (Wolfgang Muthspiel)
TTITLE4=Floater (Carla Bley)
TTITLE5=New Song (Aydin Esen)
TTITLE6=Nydia (Wolfgang Muthspiel)
TTITLE7=Snare - Tourists (Wolfgang Muthspiel)
EXTD=YEAR: 2004
EXTT0=
EXTT1=
EXTT2=
EXTT3=
EXTT4=
EXTT5=
EXTT6=
EXTT7=
PLAYORDER=
